<svg width="28" height="28" viewBox="0 0 28 28" fill="none" xmlns="http://www.w3.org/2000/svg">
<path fill-rule="evenodd" clip-rule="evenodd" d="M14 0C16.7689 0 19.4757 0.821086 21.778 2.35943C24.0803 3.89777 25.8747 6.08427 26.9343 8.64243C27.9939 11.2006 28.2712 14.0155 27.731 16.7313C27.1908 19.447 25.8574 21.9416 23.8995 23.8995C21.9416 25.8574 19.447 27.1908 16.7313 27.731C14.0155 28.2712 11.2006 27.9939 8.64243 26.9343C6.08427 25.8747 3.89777 24.0803 2.35943 21.778C0.821086 19.4757 0 16.7689 0 14C0 10.287 1.475 6.72601 4.1005 4.1005C6.72601 1.475 10.287 0 14 0Z" fill="#A2A2A2"/>
<path d="M22.782 5.99204C22.148 3.50604 18.025 2.69204 14.123 4.07404C11.6792 4.89507 9.42148 6.19012 7.47899 7.88504C5.32999 9.89504 4.98699 11.645 5.12799 12.376C5.62799 14.956 9.16099 16.642 10.614 17.893V17.9C10.186 18.111 7.04999 19.7 6.31399 21.32C5.53999 23.032 6.43699 24.26 7.03199 24.425C7.92531 24.6401 8.86355 24.5701 9.71507 24.2249C10.5666 23.8796 11.2887 23.2765 11.78 22.5C12.1863 21.8711 12.4406 21.1561 12.5225 20.4118C12.6044 19.6675 12.5118 18.9143 12.252 18.212C12.9517 18.0332 13.6794 17.9915 14.395 18.089C16.851 18.376 17.333 19.909 17.241 20.551C17.1977 20.7796 17.1057 20.9961 16.9713 21.1859C16.8369 21.3757 16.6632 21.5344 16.462 21.651C16.29 21.758 16.237 21.794 16.252 21.874C16.273 21.989 16.352 21.985 16.499 21.96C16.8681 21.8438 17.1933 21.6185 17.4318 21.3138C17.6703 21.009 17.8108 20.6392 17.835 20.253C17.894 18.753 16.453 17.067 13.901 17.11C13.1598 17.0882 12.42 17.1896 11.712 17.41L11.604 17.29C10.026 15.607 7.10999 14.416 7.23299 12.153C7.27799 11.33 7.56399 9.16404 12.833 6.53604C17.153 4.38304 20.611 4.97604 21.209 6.28904C22.063 8.16504 19.361 11.65 14.875 12.153C14.3792 12.2537 13.867 12.2414 13.3766 12.1171C12.8862 11.9928 12.43 11.7597 12.042 11.435C11.806 11.175 11.771 11.164 11.683 11.212C11.54 11.291 11.631 11.521 11.683 11.657C11.8548 11.9666 12.0867 12.2387 12.365 12.4575C12.6434 12.6762 12.9626 12.8372 13.304 12.931C15.0678 13.3137 16.9073 13.1318 18.562 12.411C21.283 11.362 23.405 8.43704 22.782 5.99204ZM11.218 18.663C11.4156 19.3479 11.4055 20.0759 11.189 20.755C11.1657 20.8257 11.14 20.8957 11.112 20.965C11.084 21.0344 11.0537 21.101 11.021 21.165C10.8516 21.5087 10.6337 21.8263 10.374 22.108C9.56099 22.995 8.42399 23.331 7.93699 23.048C7.41099 22.743 7.67399 21.492 8.61699 20.495C9.34182 19.7788 10.1772 19.1839 11.091 18.733L11.218 18.663Z" fill="white"/>
</svg>
